HIERARCHY
ROOT SpineBase
{
  OFFSET 0.000000 0.000000 0.000000
  CHANNELS 6 Xposition Yposition Zposition Zrotation Xrotation Yrotation
  JOINT SpineMid
  {
    OFFSET 0.000000 26.160628 0.000000
    CHANNELS 3 Zrotation Xrotation Yrotation
    JOINT SpineShoulder
    {
      OFFSET -0.294445 19.437892 -0.242231
      CHANNELS 3 Zrotation Xrotation Yrotation
      JOINT Neck
      {
        OFFSET -0.232281 6.460789 -0.250444
        CHANNELS 3 Zrotation Xrotation Yrotation
        JOINT Head
        {
          OFFSET 0.495229 8.970939 7.343719
          CHANNELS 3 Zrotation Xrotation Yrotation
          End Site
          {
            OFFSET 0 0 0
          }
        }
      }
      JOINT ShoulderLeft
      {
        OFFSET -4.219659 -5.826746 11.120090
        CHANNELS 3 Zrotation Xrotation Yrotation
        JOINT ElbowLeft
        {
          OFFSET -4.604715 -20.358947 -18.772766
          CHANNELS 3 Zrotation Xrotation Yrotation
          JOINT WristLeft
          {
            OFFSET 0.424811 -17.964645 9.113054
            CHANNELS 3 Zrotation Xrotation Yrotation
            JOINT HandLeft
            {
              OFFSET 0.197903 -7.362986 2.474390
              CHANNELS 3 Zrotation Xrotation Yrotation
              JOINT HandTipLeft
              {
                OFFSET 1.373192 -5.726763 1.090171
                CHANNELS 3 Zrotation Xrotation Yrotation
                End Site
                {
                  OFFSET 0 0 0
                }
              }
              JOINT ThumbLeft
              {
                OFFSET 2.847331 0.527667 -0.480544
                CHANNELS 3 Zrotation Xrotation Yrotation
                End Site
                {
                  OFFSET 0 0 0
                }
              }
            }
          }
        }
      }
      JOINT ShoulderRight
      {
        OFFSET 2.883974 -1.005618 -7.066098
        CHANNELS 3 Zrotation Xrotation Yrotation
        JOINT ElbowRight
        {
          OFFSET -9.745573 -20.564106 -3.119880
          CHANNELS 3 Zrotation Xrotation Yrotation
          JOINT WristRight
          {
            OFFSET -3.131604 -19.659898 3.698036
            CHANNELS 3 Zrotation Xrotation Yrotation
            JOINT HandRight
            {
              OFFSET 2.374679 -3.172686 3.187693
              CHANNELS 3 Zrotation Xrotation Yrotation
              JOINT HandTipRight
              {
                OFFSET -0.853027 -0.883289 3.165207
                CHANNELS 3 Zrotation Xrotation Yrotation
                End Site
                {
                  OFFSET 0 0 0
                }
              }
              JOINT ThumbRight
              {
                OFFSET 0.454810 0.819443 -0.967484
                CHANNELS 3 Zrotation Xrotation Yrotation
                End Site
                {
                  OFFSET 0 0 0
                }
              }
            }
          }
        }
      }
    }
  }
  JOINT HipLeft
  {
    OFFSET -3.167135 1.412756 -2.351556
    CHANNELS 3 Zrotation Xrotation Yrotation
    JOINT KneeLeft
    {
      OFFSET 24.413423 -35.016906 -2.396686
      CHANNELS 3 Zrotation Xrotation Yrotation
      JOINT AnkleLeft
      {
        OFFSET 6.113810 -31.320456 -4.148988
        CHANNELS 3 Zrotation Xrotation Yrotation
        JOINT FootLeft
        {
          OFFSET -5.109102 -4.455785 -6.620580
          CHANNELS 3 Zrotation Xrotation Yrotation
          End Site
          {
            OFFSET 0 0 0
          }
        }
      }
    }
  }
  JOINT HipRight
  {
    OFFSET 1.782464 0.765524 -3.086961
    CHANNELS 3 Zrotation Xrotation Yrotation
    JOINT KneeRight
    {
      OFFSET 8.454291 -33.219797 -10.201610
      CHANNELS 3 Zrotation Xrotation Yrotation
      JOINT AnkleRight
      {
        OFFSET 8.159578 -32.021725 -5.046188
        CHANNELS 3 Zrotation Xrotation Yrotation
        JOINT FootRight
        {
          OFFSET -1.458268 -6.613287 2.155964
          CHANNELS 3 Zrotation Xrotation Yrotation
          End Site
          {
            OFFSET 0 0 0
          }
        }
      }
    }
  }
}
MOTION
Frames: 12
Frame Time: 0.033333
79.268462 72.528737 295.532948 -0.000000 0.000000 8.451108 -0.000000 -0.000000 -8.451108 -0.000000 0.000000 0.000000 -0.000000 0.000000 0.000000 0.000000 0.000000 0.000000 -0.000000 0.000000 0.000000 -0.000000 0.000000 0.000000 -0.000000 0.000000 0.000000 -0.000000 0.000000 0.000000 0.000000 0.000000 0.000000 0.000000 0.000000 0.000000 -0.000000 0.000000 0.000000 -0.000000 0.000000 0.000000 -0.000000 0.000000 0.000000 -0.000000 0.000000 0.000000 0.000000 0.000000 0.000000 0.000000 0.000000 0.000000 -0.000000 -0.000000 -8.451108 -0.000000 0.000000 0.000000 -0.000000 0.000000 0.000000 0.000000 0.000000 0.000000 -0.000000 -0.000000 -8.451108 -0.000000 0.000000 0.000000 -0.000000 0.000000 0.000000 0.000000 0.000000 0.000000
79.248267 72.604464 295.588267 0.080043 0.107660 4.226442 -0.087760 -0.101468 -4.226595 -0.000000 0.000000 0.000000 -0.000000 0.000000 0.000000 0.000000 0.000000 0.000000 -0.000000 0.000000 0.000000 -0.000000 0.000000 0.000000 -0.135713 0.960219 -0.018714 1.343760 -0.398339 0.399258 0.000000 0.000000 0.000000 0.000000 0.000000 0.000000 -1.482267 0.626893 -0.063648 1.483051 -0.625036 0.079847 -0.000000 0.000000 0.000000 2.311413 6.538780 2.358773 0.000000 0.000000 0.000000 0.000000 0.000000 0.000000 -0.087760 -0.101468 -4.226595 0.998951 -0.833833 -0.287620 -0.175958 0.727576 -0.827302 0.000000 0.000000 0.000000 -0.087760 -0.101468 -4.226595 -0.000000 0.000000 0.000000 -1.633741 3.203376 -1.200631 0.000000 0.000000 0.000000
79.225308 72.666661 295.636971 0.155551 0.225936 0.691350 -0.158268 -0.224041 -0.691966 -0.000000 0.000000 0.000000 -0.711230 -0.499642 0.608669 0.000000 0.000000 0.000000 0.978673 -0.238131 -0.849806 -0.982104 0.223556 0.853756 -0.293510 1.663284 -0.049914 2.359132 -0.562580 0.753295 0.000000 0.000000 0.000000 0.000000 0.000000 0.000000 -2.598265 1.120291 -0.109922 2.600901 -1.114153 0.160622 0.830811 0.682264 1.341157 3.145263 10.397352 2.270299 0.000000 0.000000 0.000000 0.000000 0.000000 0.000000 -1.110295 0.551188 -0.087761 2.709699 -2.270727 -1.071095 -0.227995 1.024859 -1.314767 0.000000 0.000000 0.000000 -0.158268 -0.224041 -0.691966 0.598269 -0.684800 -0.265100 -3.472252 6.549966 -1.793882 0.000000 0.000000 0.000000
79.199586 72.715330 295.679062 0.226469 0.354829 -2.186317 -0.212772 -0.363208 2.184941 -0.000000 0.000000 0.000000 -0.941773 -0.748171 0.810066 0.000000 0.000000 0.000000 1.292488 -0.256224 -1.136202 -1.297325 0.230481 1.141701 -0.466849 1.936982 -0.097494 3.086341 -0.309814 1.049366 0.000000 0.000000 0.000000 0.000000 0.000000 0.000000 -3.376558 1.490545 -0.147714 3.381517 -1.479249 0.235317 2.853963 0.651475 3.295899 2.652544 13.783696 0.823804 0.000000 0.000000 0.000000 0.000000 0.000000 0.000000 -1.489164 0.591467 2.976830 3.516496 -2.980838 -1.381111 -0.167641 0.899039 -1.430408 0.000000 0.000000 0.000000 -0.212772 -0.363208 2.184941 0.757086 -0.846588 -0.329269 -4.429894 8.773481 -2.328574 0.000000 0.000000 0.000000
79.171100 72.750471 295.714540 0.292746 0.494334 -4.447661 -0.253541 -0.515542 4.445258 -0.000000 0.000000 0.000000 -1.086860 -0.993392 0.941328 0.000000 0.000000 0.000000 1.494682 -0.206493 -1.335008 -1.499094 0.171548 1.339946 -0.643103 1.613438 -0.164501 3.540940 0.537340 1.272330 0.000000 0.000000 0.000000 0.000000 0.000000 0.000000 -3.839104 1.745991 -0.182992 3.846416 -1.729805 0.299603 6.506998 0.457415 6.599273 0.887374 16.766186 -2.521109 0.000000 0.000000 0.000000 0.000000 0.000000 0.000000 -1.713294 0.519026 5.344352 3.959238 -3.391249 -1.556033 -0.000174 0.365397 -1.160531 0.000000 0.000000 0.000000 -0.253541 -0.515542 4.445258 0.823250 -0.887736 -0.349355 -4.853973 10.223523 -2.665517 0.000000 0.000000 0.000000
79.139851 72.772082 295.743403 0.354334 0.644434 -6.132535 -0.283484 -0.678589 6.128864 -0.000000 0.000000 0.000000 -1.145651 -1.233870 1.001909 0.000000 0.000000 0.000000 1.587721 -0.088552 -1.448353 -1.589452 0.048363 1.450251 -0.804814 0.592303 -0.250871 3.719287 2.088675 1.414833 0.000000 0.000000 0.000000 0.000000 0.000000 0.000000 -4.001609 1.892820 -0.219446 4.762413 -1.412749 0.442133 12.011792 -0.100299 12.115579 -2.525930 19.978096 -8.550098 0.000000 0.000000 0.000000 0.000000 0.000000 0.000000 -1.769030 0.357008 7.053733 4.037884 -3.495505 -1.601682 0.275735 -0.554151 -0.510755 0.000000 0.000000 0.000000 -0.283484 -0.678589 6.128864 0.796803 -0.807977 -0.325620 -4.739399 10.871657 -2.821614 0.000000 0.000000 0.000000
79.098598 72.803416 295.726948 0.440705 0.868488 -7.321525 -0.326481 -0.917550 7.315571 -0.000000 0.000000 0.000000 -1.277676 -1.770265 1.137607 0.000000 0.000000 0.000000 1.540833 0.377421 -1.511230 -0.556780 -0.222655 2.006616 -2.185832 0.945744 -0.874112 4.352443 2.025206 1.706071 0.000000 0.000000 0.000000 0.000000 0.000000 0.000000 -3.947846 2.089148 -0.313008 4.799708 -1.556008 0.561699 33.414417 2.168759 29.877493 -13.607696 30.675981 -29.224413 0.000000 0.000000 0.000000 0.000000 0.000000 0.000000 -1.543387 0.007196 8.132863 3.616719 -3.176672 -1.462191 1.111135 -2.567065 0.694363 0.000000 0.000000 0.000000 -0.326481 -0.917550 7.315571 -0.000000 0.000000 0.000000 -2.650485 9.599148 -2.825643 0.000000 0.000000 0.000000
79.055521 72.790845 295.751396 0.502808 1.055220 -7.542474 -0.360025 -1.112059 7.534349 -0.000000 0.000000 0.000000 -1.191213 -2.090956 1.084425 0.000000 0.000000 0.000000 1.389377 0.522463 -1.403575 -0.049523 0.832691 2.113545 -2.469338 -5.043720 -1.248136 2.613403 8.930929 1.798801 0.000000 0.000000 0.000000 0.000000 0.000000 0.000000 -3.253125 1.918095 -0.355256 4.164322 -1.365292 0.575922 54.383959 14.353401 47.924912 -22.561730 41.574853 -53.342053 0.000000 0.000000 0.000000 0.000000 0.000000 0.000000 -1.223114 -0.266291 8.241208 2.893248 -2.676003 -1.260043 1.845600 -4.550587 2.214843 0.000000 0.000000 0.000000 -0.360025 -1.112059 7.534349 -0.000000 0.000000 0.000000 -0.006541 6.468933 -1.456454 0.000000 0.000000 0.000000
79.029703 72.698145 295.785951 0.525969 1.160142 -6.834873 -0.384261 -1.214454 6.825475 -0.000000 0.000000 0.000000 -0.897566 -2.047682 0.843748 0.000000 0.000000 0.000000 1.168345 0.932684 -1.291054 0.351465 1.043132 2.107129 -2.844649 -8.350606 -1.531914 2.116174 11.495907 1.752942 0.000000 0.000000 0.000000 0.000000 0.000000 0.000000 -3.264731 1.531587 -0.183931 4.448713 -1.388987 0.503113 68.578480 21.256947 56.209342 -25.645020 53.145512 -68.462539 0.000000 0.000000 0.000000 0.000000 0.000000 0.000000 -0.504236 -0.534955 7.306508 1.475966 -1.732001 -0.845217 2.555955 -6.396649 3.696963 0.000000 0.000000 0.000000 -0.384261 -1.214454 6.825475 -0.394664 0.809884 0.271292 1.829160 4.110255 -0.944282 0.000000 0.000000 0.000000
78.795697 72.704612 296.165779 0.224336 0.696943 -8.278808 -0.121658 -0.721979 8.276678 -0.000000 0.000000 0.000000 -0.690122 -1.768020 0.660020 0.000000 0.000000 0.000000 0.959445 1.125497 -1.140500 0.780813 1.557176 2.088041 -3.017394 -10.303128 -1.697673 1.638457 13.134674 1.808161 0.000000 0.000000 0.000000 0.000000 0.000000 0.000000 -1.213826 1.335499 -0.431695 2.153430 -0.643847 0.544513 70.942174 22.789028 58.216696 -22.079762 55.042473 -74.730203 0.000000 0.000000 0.000000 0.000000 0.000000 0.000000 0.042417 0.026980 8.758447 0.516169 -1.147994 -0.658065 3.063420 -8.400822 5.766367 0.000000 0.000000 0.000000 0.344350 0.570162 8.386388 -1.178927 -0.170031 0.226146 2.668106 2.930436 -0.570512 0.000000 0.000000 0.000000
78.800405 72.700646 296.072524 0.319530 1.013178 -8.443262 -0.167339 -1.049104 8.438905 -0.000000 0.000000 0.000000 -0.494999 -1.384706 0.480311 0.000000 0.000000 0.000000 0.754402 1.110290 -0.947003 0.963577 1.926263 1.892080 -1.812950 -10.394150 -1.175267 1.027017 12.423270 1.396277 0.000000 0.000000 0.000000 0.000000 0.000000 0.000000 -0.611695 1.595819 -0.651969 1.465771 -0.648323 0.696620 68.690082 33.231736 61.982983 -26.753014 49.884283 -80.463301 0.000000 0.000000 0.000000 0.000000 0.000000 0.000000 -0.167339 -1.049104 8.438905 -0.000000 0.000000 0.000000 3.333435 -9.027322 6.681448 0.000000 0.000000 0.000000 0.323489 0.097288 8.512169 -1.260538 0.169515 0.328945 3.676399 1.428038 0.003788 0.000000 0.000000 0.000000
79.051064 72.698664 295.580068 0.759094 1.914487 -7.886190 -0.489590 -2.000417 7.864959 -0.805766 -0.250742 -0.042020 0.730400 -0.577874 0.146693 0.000000 0.000000 0.000000 1.297992 1.108204 -0.611787 1.295027 2.362756 1.627601 -1.190375 -9.460036 -0.891712 0.421123 10.560407 1.030552 0.000000 0.000000 0.000000 0.000000 0.000000 0.000000 -0.250725 2.576927 -0.871261 1.692718 -1.053709 0.893763 61.197282 26.624510 57.211803 -25.137957 43.889844 -70.290163 0.000000 0.000000 0.000000 0.000000 0.000000 0.000000 -0.489590 -2.000417 7.864959 0.829878 -0.712474 -0.243709 1.651738 -7.573403 7.199190 0.000000 0.000000 0.000000 -0.489590 -2.000417 7.864959 -0.618142 1.337180 0.445164 4.021550 0.274339 0.357015 0.000000 0.000000 0.000000
